<svg height="166" viewBox="0 0 250 166" width="250" xmlns="http://www.w3.org/2000/svg"><g fill="none" fill-rule="evenodd" transform="translate(6 32.337812)"><g fill-rule="nonzero"><path d="m219.758751 106.095616c-.265136.573021-.52951 1.138402-.793122 1.696142-.411418.866408-.817503 1.716007-1.218255 2.548798-.178281.369025-.356562.731175-.530272 1.093324-1.965664 4.027192-3.801045 7.589091-5.359862 10.518375-2.879238 5.408887-8.471013 8.812406-14.584768 8.877243l-34.661966.378194h-.365705l-2.971352.032089-2.541649.027505-7.787229.089391h-.31542l-3.967898.04355h-.12114l-24.456514.265882-21.8302965.229208-2.5393633.027505-15.7710232.171907h-.0251422l-10.2283086.11002h-.1097115l-32.3420259.350689-9.6751799.105435c-.8238261.009433-1.6474519-.031902-2.4662223-.123772-.27885-.032089-.5577-.068763-.8342643-.112312-4.5123441-.698504-8.649806-2.926349-11.7231273-6.312401-4.16217873-4.611673-7.19067233-9.95223-9.22490576-15.771832-.29408768-.838903-.56836635-1.688502-.822836-2.548798-7.04210473-23.8812269 1.54281749-54.6776723 16.99384896-75.2812186.6476024-.8618238 1.3058712-1.7022547 1.9748064-2.5212928l.0159996-.0183367c4.7518779-5.8493993 10.0797409-10.7361232 15.7550236-14.210923 10.0568844-6.16799906 21.1994552-7.905399 32.1591735-2.7275804 9.2729046 4.3824653 17.9309678 6.4430491 26.3238949 7.0023177.8479782.05501 1.6959564.0962675 2.5393633.1214805 19.2520765.6074023 37.2950415-6.3490737 58.4830685-10.83926698.843407-.17878258 1.689099-.35527307 2.541649-.52259523 15.11504-3.01638302 31.882609-4.60708957 51.822668-1.26293849 2.071623.33938033 4.115838.82965593 6.116414 1.466934.879216.28421846 1.726432.5898297 2.541649.91683374 9.51747 3.88279086 14.708194 11.05701496 16.913851 20.04656986.208757.8343187.389324 1.6831539.541701 2.5465057 3.910756 21.6235238-7.542664 52.2961967-17.455552 73.5873687z" fill="#f2f2f2"/><path d="m113.234859 107.956464c-.092242.851172-.235125 1.69616-.427897 2.530519h21.440604v-2.530519zm-17.9053069 14.293336 2.5422103-.020481v-6.251201c-.8718111-.038686-1.72074-.077372-2.5422103-.118333zm-53.2971762-14.293336v2.530519h45.4211295v-2.530519zm194.4253161-77.2695776h-16.932814v-19.9028046c-.816131-.3307273-1.664297-.6341468-2.544498-.91025857v20.82216567h-58.015482v-21.0338008c-.853506.1661222-1.700146.341347-2.544499.5188474v20.5058509h-58.5486366v-9.7443185c-.8443525-.0250321-1.6932814-.0659937-2.5422103-.1206092v9.8649277h-58.5486368v-14.1090085c-5.6816456 3.4498801-11.015482 8.3015585-15.7726875 14.1090085h-.0160175v.0182051c-.6712106.8192328-1.3302174 1.6536365-1.9770204 2.5032112h1.9770204v74.7481613h-18.9922103c.25322947.854126.52781564 1.697632.82375852 2.530519h18.16616358v21.304603c.9140096.278008 1.8469649.490192 2.7916261.634905.2768744.043238.556037.079648.8351996.111507.8196884.091211 1.6442376.13225 2.4689874.122885l9.6860272-.10468v-22.073771h58.5577897v21.438866l2.5422103-.027308v-21.407007h58.5486366v20.778929l2.544499-.027308v-20.751621h58.004041v1.085483c.173904-.359552.352385-.719104.530866-1.085483.401201-.825301.807741-1.668807 1.219621-2.530519.263907-.553741.528578-1.115067.794011-1.683978v-73.0482538h17.486563c-.154073-.8632286-.334843-1.7090105-.542308-2.5373458zm-199.6767767 77.2695776v-74.7413344h58.5486368v74.7413344zm61.0954236 0v-74.7413344h58.5440601v74.7413344zm119.0971761 0h-58.008617v-74.7413344h58.004041z" fill="#000" opacity=".1"/><path d="m190.674271 81.8342129c-3.160866-5.8370001-7.64081-10.8555717-13.083207-14.6562132-.388969-.2684773-.837761-.4376432-1.30718-.4927225.641043-4.2155147.506447-8.8735671-1.87294-12.386496-5.646196-8.3352223-34.413283.2668913-34.413283.2668913-20.164335-6.9893598-37.64131 1.8819262-37.64131 1.8819262s-22.3155935-3.4946799-32.531217-.8052363c-4.8180877 1.2683042-5.9883903 6.1818424-5.8788883 11.0223847h-.015969c-.8653498-.0015436-1.6841981.3914745-2.2242592 1.0675654-2.7170182 3.3943106-10.9251052 13.8486957-10.7015386 15.8674893.2691924 2.4202711 9.1411352 33.8723902 8.7396279 49.0623862l123.9402872-1.368673s2.053162-30.567044 7.18835-47.299079c.22257-.7179402.151191-1.4948496-.198473-2.1602231z" fill="#3f3d56"/><path d="m61 83.8345587 4.8603473-10.1723706 4.0918958 19.8064845.0477569 9.1935154z" fill="#000" opacity=".1"/><path d="m179 83.0230486-5.092845-10.3608605-5.907155 19.1279204 1.137304 10.8720795z" fill="#000" opacity=".1"/><path d="m70 92.2058877 96.925828-.5436996 1.074172 10.9999999-97.6267707-.27535z" fill="#3f3d56"/><path d="m70 92.2058877 96.925828-.5436996 1.074172 10.9999999-97.6267707-.27535z" fill="#000" opacity=".1"/><rect fill="#fff" height="12" opacity=".1" rx="6" width="99" x="70" y="101.662188"/><path d="m149 62.9537039s-.338028-.4701859-.737089-.2162855c-.190141.1245993-1.084507 1.2530455-1.962442 2.4002991-.431924.5618722-.861502 1.1284462-1.201877 1.5798247-.420188.5548194-.704226.9403718-.704226.9403718l-.169014.3173755-1.025821 1.9207094-.964789 1.8055139-.234742.8510365 3.258216 1.1096388 3.70892-1.0132506-.159624-.6888224-.028169-.1175465.030516-1.5845265.084507-4.4667662.039906-2.0100447v-.235093z" fill="#ffe09c"/><path d="m141 73.762022s3.641943 1.4329223 5.509045.6829816c0 0 1.614595-.5678122 2.250721-1.1168759 0 0 .677401-.3910405-.242797-1.6659396 0 0-2.35755 1.5936239-4.588847.9668878l-2.231297-.6294145z" fill="#e7c4c3"/><ellipse cx="144.941992" cy="71.481084" fill="#ff7f8e" rx="1.121436" ry="1" transform="matrix(.86277851 -.50558208 .50558208 .86277851 -16.250399 83.088815)"/><ellipse cx="147.220383" cy="68.749852" fill="#ff7f8e" rx="1.121436" ry="1" transform="matrix(.86277851 -.50558208 .50558208 .86277851 -14.556893 83.865945)"/><path d="m149 69.7531358c-.418263-.146311-.895011-.1147179-1.280649.0848658-.640324.3142331-.903022.9381118-.582859 1.3922588.320162.4541471 1.094571.5688307 1.732159.2545976.043783-.0229367.087566-.0458734.128613-.0711038l-.032838-.1146836z" fill="#ff7f8e"/><path d="m144.866815 68.0751091c-.151465-.2156355-.402144-.3657342-.689617-.412921l-1.177198 1.895261c.418428.16244.903346.1346008 1.293032-.0742329.630353-.31781.886265-.9487905.573783-1.4081071z" fill="#ff7f8e"/><path d="m146.892266 66.0932971c-.162903-.2694307-.449095-.4325282-.756463-.431109-.408179.5480563-.81414 1.1006895-1.135803 1.5409616l.01331.027517c.257331.4586167.887346.5663916 1.406444.2522392.519098-.3141525.725406-.9355782.472512-1.3896088z" fill="#ff7f8e"/><path d="m149 63.6621881c-.126007.0302748-.246888.0775289-.359026.1403479-.571511.3204611-.803534.956705-.520221 1.4198531.180265.276266.497591.4428433.837727.4397568z" fill="#ff7f8e"/><path d="m143.190097 71.6610504-.190097-.3661622c.284639-.0970112.547357-.2636095.769894-.4882163.014257-.0162738.026138-.03526.038019-.0515339.237622-.3417514.187722.3688745.187722.3688745s-.58455.5668733-.805538.5370379z" fill="#94cc79"/><path d="m146.190097 70.6610575-.190097-.3682547c.284433-.0974057.547051-.2636608.769894-.4873961 0-.0162465.026138-.032493.038019-.0514473.237622-.3384695.187722.3682547.187722.3682547s-.58455.5686287-.805538.5388434z" fill="#94cc79"/><path d="m146.190097 69.6614181-.190097-.3689117c.284229-.0967755.546831-.2623918.769894-.4855529.011881-.0189881.026138-.0352636.038019-.0515391.237622-.3417858.187722.3661991.187722.3661991s-.58455.5642179-.805538.5398046z" fill="#94cc79"/><path d="m146.190097 67.6612473-.190097-.3679481c.284433-.0973246.547051-.2634412.769894-.4869901 0-.016233.026138-.032466.038019-.0514045.237622-.3408931.187722.3679481.187722.3679481s-.58455.5654496-.805538.5383946z" fill="#94cc79"/><path d="m148.187812 64.6612463-.187812-.3683243c.283964-.0971457.545983-.2634862.767891-.4874882.013939-.0158903.026665-.0331049.038038-.0514571.237737-.3385334.19019.3683244.19019.3683244s-.587211.5660279-.808307.5389452z" fill="#94cc79"/><path d="m147.190097 67.6610559-.190097-.3687779c.284463-.0961028.547179-.2617311.769894-.4853769 0-.0189813.026138-.0352509.038019-.0515205.237622-.3416619.187722.3660664.187722.3660664s-.58455.5694366-.805538.5396089z" fill="#94cc79"/><path d="m141.089693 72.6829611s-.410998 1.1421704.526591.9594231c.417241-.5161979.702581-1.1385718.828417-1.8069135 0 0 2.027161-4.740007 2.626533-5.1740317 0 0 2.641517-3.8536828 2.926219-3.9107913 0 0 .092046-.3746319-.830558.4180343-.922605.7926663-2.943344 3.8445455-2.943344 3.8445455l-1.926552 3.3511278-.45381 1.3363393z" fill="#e7c4c3"/><path d="m141.089693 72.6829611s-.410998 1.1421704.526591.9594231c.417241-.5161979.702581-1.1385718.828417-1.8069135 0 0 2.027161-4.740007 2.626533-5.1740317 0 0 2.641517-3.8536828 2.926219-3.9107913 0 0 .092046-.3746319-.830558.4180343-.922605.7926663-2.943344 3.8445455-2.943344 3.8445455l-1.926552 3.3511278-.45381 1.3363393z" fill="#fff" opacity=".2"/><path d="m107 95.788646c.375686 1.3245606.838179 2.6189679 1.384021 3.8735421 1.567506-.3517083 3.109508-.8234727 4.614162-1.4116692.047803-.0170963-.862737-1.2944371-.958343-1.3994575-.370791-.4397113-.812696-.8037883-1.304349-1.0746271-.48031-.2246947-1.072161-.0537313-1.593445-.0244233-.710222.0390773-1.424237.051289-2.142046.036635z" fill="#fbbebe"/><path d="m110.772076 97.6847081c-.790983-.2506821-1.273851-1.0561146-1.595763-1.8313723-.321911-.7752578-.58174-1.6247917-1.193373-2.1911477-.235936.0363079-.438053.1897662-.538052.4085191-.095453.2174896-.202137.4297776-.319612.6359899-.252931.3713809-.689811.5524291-1.02322.868103-.333409.3156738-.519658.7961479-.866862 1.1141428-.436881.3992346-1.053112.4990432-1.625655.6313477-.886852.203234-1.743414.5231925-2.547702.9516637-.295982.1803225-.612541.3237328-.942741.4270881-.3635986.0715799-.7361845.084117-1.1036977.0371381l-2.5293068-.1810482c-.225286-.0291692-.453833-.0197525-.6760147.0278535-.5259169.1936951-.8564452.7208722-.8047794 1.2835855.0655301.5511667.355463 1.0498947.8001807 1.3764307.4419819.317105.9287836.565157 1.4440042.735799 2.206391.841984 4.4783357 1.497255 6.7923387 1.959034v.506007c1.608549.800395 3.377931 1.216549 5.171282 1.216272.132265.009477.264831-.013623.386294-.067312.165936-.121169.282104-.299547.326511-.501365.608889-1.797745.964175-3.673031 1.055411-5.5707142.04504-.4801085.008491-.964456-.108071-1.4321379-.137962-.4642262.335708-.26693-.103471-.4479782" fill="#2f2e41"/><path d="m159.246285 88.630607c-7.419535.4511932-14.761855-1.7167899-22.179119-1.9468984-.923567-.0579263-1.850801.0012044-2.759331.1759653-.953843.2120608-1.844096.6406943-2.725265 1.0512801-3.985701 1.840868-8.105394 3.3659008-12.222816 4.8886777l-4.728335 1.7506294c-.944759.3496747-1.923583.7038613-2.929661.6429502-.45421-.0270716-1.006077-.0947505-1.258164.2774838-.769887 1.1279829-.406518 2.7951415.102198 4.0607383.163516.4105858.454208.8572666.885711.9023866.311134.031583.601829-.146638.908422-.225597.860729-.2255964 1.719188.347419 2.604899.439913 1.094649.115055 2.10981-.50308 3.14314-.8820822 1.712375-.6294144 3.585995-.6091107 5.386941-.9023862 3.020503-.5008244 5.818442-1.8927553 8.434697-3.4786992.994721-.6045988 2.00307-1.252061 3.147681-1.4731456 1.314941-.2549241 2.666218.0812148 3.958448.4511931 3.075609.8639675 6.103324 1.8880877 9.070592 3.0681134 1.562485.6226466 3.115887 1.2881564 4.741962 1.7190459 3.517504.9187358 7.237948.7030594 10.623993-.6158786 1.18549-.4669849 2.47772-1.2904124 2.545852-2.5627771.038608-.726421-.529156-1.3535794-.908422-1.9852498-.240732-.399306-.483735-.7963559-.749448-1.1798701-1.287688-1.8634277-2.841089-4.3088945-5.093975-4.1757926z" fill="#2f2e41"/><path d="m159.246285 88.630607c-7.419535.4511932-14.761855-1.7167899-22.179119-1.9468984-.923567-.0579263-1.850801.0012044-2.759331.1759653-.953843.2120608-1.844096.6406943-2.725265 1.0512801-3.985701 1.840868-8.105394 3.3659008-12.222816 4.8886777l-4.728335 1.7506294c-.944759.3496747-1.923583.7038613-2.929661.6429502-.45421-.0270716-1.006077-.0947505-1.258164.2774838-.769887 1.1279829-.406518 2.7951415.102198 4.0607383.163516.4105858.454208.8572666.885711.9023866.311134.031583.601829-.146638.908422-.225597.860729-.2255964 1.719188.347419 2.604899.439913 1.094649.115055 2.10981-.50308 3.14314-.8820822 1.712375-.6294144 3.585995-.6091107 5.386941-.9023862 3.020503-.5008244 5.818442-1.8927553 8.434697-3.4786992.994721-.6045988 2.00307-1.252061 3.147681-1.4731456 1.314941-.2549241 2.666218.0812148 3.958448.4511931 3.075609.8639675 6.103324 1.8880877 9.070592 3.0681134 1.562485.6226466 3.115887 1.2881564 4.741962 1.7190459 3.517504.9187358 7.237948.7030594 10.623993-.6158786 1.18549-.4669849 2.47772-1.2904124 2.545852-2.5627771.038608-.726421-.529156-1.3535794-.908422-1.9852498-.240732-.399306-.483735-.7963559-.749448-1.1798701-1.287688-1.8634277-2.841089-4.3088945-5.093975-4.1757926z" fill="#000" opacity=".1"/><path d="m121 96.6159119c1.217999.3784866 2.448718.7272453 3.692159 1.0462762.694068-1.0397506 1.993956-1.7640956 2.28971-2.9517605.025116-.0531184.024096-.1135014-.002801-.165889-.026898-.0523877-.077101-.0917676-.13792-.1081875-.888448-.448774-1.874868-.7124909-2.888375-.7721997-.801399-.0456795-1.166322.7156442-1.531244 1.2529212-.145492.2153458-1.094768 1.8010742-1.421529 1.6988393z" fill="#fbbebe"/><path d="m123.255483 95.4606313c-.687707-.1200966-1.295237-.532321-1.675037-1.1365544-.160375-.2898904-.331889-.6902152-.65264-.6603059-.320752.0299094-.445489.3888213-.503402.6902152-.216002 1.1408298-.529823 2.2595524-.937754 3.3429423-.409549 1.0856832-1.10371 2.0321184-2.004698 2.7332525-.423214.301394-.890977.529165-1.305281.846664-.371983.282988-.694962.6419-1.113721.860468-.273704.130938-.556665.240155-.846428.326702-.42507.154905-.831616.359461-1.211729.60969-.333852.199461-.616485.478767-.824154.814454-.213352.345558-.239444.780226-.069051 1.150358.178134.300862.472452.508554.808562.570578.331754.059859.670211.069161 1.004577.027609 1.325328-.101232 2.650656-.230072 3.975984-.345108.560024-.035053 1.116856-.111945 1.666127-.230071.291795-.073623.574681-.167953.864248-.246177.495641-.131537 1.003342-.208655 1.514661-.230072.149694-.012143.300299.001858.445488.041413.307388.103532.523449.418731.841974.483151.20323.020023.408201-.00831.599182-.082826.953345-.269184 1.957922-.262282 2.944679-.317499.445488-.023007.944435-.108134 1.144905-.510759.249474-.501557-.164831-1.062932-.327434-1.610502-.083019-.344226-.129328-.696799-.138101-1.051428-.075037-.875076-.323736-1.7248161-.730601-2.4962786-.336344-.6395994-.797425-1.3482203-.561316-2.0361348.080188-.2300717.240564-.4601435.222744-.6902152-.075733-1.1020436-2.528147-.7224253-3.131784-.8535661z" fill="#2f2e41"/><path d="m147.652882 76.50518c-1.393509-.608246-2.509555-1.7049594-3.132704-3.07844-.132538-.2952255-.240977-.6023553-.366286-.8999616-.413286-.9905842-1.055315-1.8719518-1.874803-2.5736997-.178223-.1924417-.432537-.2985109-.696424-.2904638-.256576.0772128-.451563.2843988-.510871.542834-.072119.2709428-.090126.5531712-.053015.8309169.070408.6543612.184722 1.3033806.342187 1.9427742l.380744 1.7165934c.046955.2646407.127936.5222707.240977.766634.163494.2893166.380042.5460552.63859.7571105.349417.319034.703654.6261638 1.06271.9261509.500593.4733092 1.152436.7595401 1.843476.8094893 1.561532.2857021 3.151982.6999701 4.472537 1.70707-.016868 0 0-1.1523318-.028917-1.2832786-.060245-.3452233-.10844-.6880658-.334959-.9213892-.518101-.5237872-1.359111-.6737808-1.983242-.9523403z" fill="#fbbebe"/><path d="m147.652882 76.50518c-1.393509-.608246-2.509555-1.7049594-3.132704-3.07844-.132538-.2952255-.240977-.6023553-.366286-.8999616-.413286-.9905842-1.055315-1.8719518-1.874803-2.5736997-.178223-.1924417-.432537-.2985109-.696424-.2904638-.256576.0772128-.451563.2843988-.510871.542834-.072119.2709428-.090126.5531712-.053015.8309169.070408.6543612.184722 1.3033806.342187 1.9427742l.380744 1.7165934c.046955.2646407.127936.5222707.240977.766634.163494.2893166.380042.5460552.63859.7571105.349417.319034.703654.6261638 1.06271.9261509.500593.4733092 1.152436.7595401 1.843476.8094893 1.561532.2857021 3.151982.6999701 4.472537 1.70707-.016868 0 0-1.1523318-.028917-1.2832786-.060245-.3452233-.10844-.6880658-.334959-.9213892-.518101-.5237872-1.359111-.6737808-1.983242-.9523403z" fill="#000" opacity=".1"/><circle cx="163" cy="61.662188" fill="#2f2e41" r="2"/><path d="m162.239696 60.6995016c-.479071-.0540213-1.013847-.0922865-1.399332.204831-.204631.1817271-.368039.4059144-.47907.6572598-.396325.6882342-.705498 1.4240324-.920261 2.1901156-.158205.6572598-.184944 1.3505338-.381029 1.9897865-.363202 1.1974733-1.292376 2.2081227-1.399331 3.4573665-.046793.5582206.046793 1.2132295-.358746 1.5958808-.098903.0840326-.204761.1593384-.31641.225089-.280182.1895645-.517797.436497-.697437.7247864-.121703.2589408-.289363.4931523-.494668.6910232-.360975.2701067-.958142.2408451-1.1364.6595106-.178259.4186655.280757.9003559.173802 1.3505338-.086901.3691459-.494668.5379627-.775426.7900623-.360974.3218772-.525863.8058185-.66847 1.2695018-1.198124.2288098-2.435397-.0828309-3.386918-.8530872.49244 1.2289857.503581 2.5862722.525864 3.9142971 0 .4299199 0 .9138612-.311953 1.2132296 1.410472.0315124 2.785294.4164145 4.160115.7315391.601623.1373043 1.254496.2566014 1.813783 0 .31572-.1716571.597459-.4005608.831132-.6752669.748687-.7675534 1.533026-1.6026335 1.715741-2.6673043.102499-.5942348 0-1.2064768.031195-1.8007117.068851-.7465069.218288-1.4831728.445647-2.1968683.396497-1.4799709.662694-2.9924542.79548-4.5197865.080217-.9408718.891294-1.6994217 1.310203-2.5435053.802164-1.5891281 1.619927-3.2457829 1.680089-5.0307384.028967-.5897331-.171574-1.3122687-.7576-1.3775445z" fill="#2f2e41"/><path d="m162.239696 60.6995016c-.479071-.0540213-1.013847-.0922865-1.399332.204831-.204631.1817271-.368039.4059144-.47907.6572598-.396325.6882342-.705498 1.4240324-.920261 2.1901156-.158205.6572598-.184944 1.3505338-.381029 1.9897865-.363202 1.1974733-1.292376 2.2081227-1.399331 3.4573665-.046793.5582206.046793 1.2132295-.358746 1.5958808-.098903.0840326-.204761.1593384-.31641.225089-.280182.1895645-.517797.436497-.697437.7247864-.121703.2589408-.289363.4931523-.494668.6910232-.360975.2701067-.958142.2408451-1.1364.6595106-.178259.4186655.280757.9003559.173802 1.3505338-.086901.3691459-.494668.5379627-.775426.7900623-.360974.3218772-.525863.8058185-.66847 1.2695018-1.198124.2288098-2.435397-.0828309-3.386918-.8530872.49244 1.2289857.503581 2.5862722.525864 3.9142971 0 .4299199 0 .9138612-.311953 1.2132296 1.410472.0315124 2.785294.4164145 4.160115.7315391.601623.1373043 1.254496.2566014 1.813783 0 .31572-.1716571.597459-.4005608.831132-.6752669.748687-.7675534 1.533026-1.6026335 1.715741-2.6673043.102499-.5942348 0-1.2064768.031195-1.8007117.068851-.7465069.218288-1.4831728.445647-2.1968683.396497-1.4799709.662694-2.9924542.79548-4.5197865.080217-.9408718.891294-1.6994217 1.310203-2.5435053.802164-1.5891281 1.619927-3.2457829 1.680089-5.0307384.028967-.5897331-.171574-1.3122687-.7576-1.3775445z" fill="#000" opacity=".1"/><path d="m160.231827 90.1154307c-1.551146-.7448508-2.687132-2.1311008-3.941735-3.3196436-2.395152-2.2667372-5.326361-3.8713848-7.844692-5.9978878-1.669763-1.4069403-3.1616-3.0483707-4.995602-4.2277177-1.614076-1.0340451-3.442979-1.6791239-5.34461-1.8851161-.21785-.0390198-.441627-.0280186-.654674.0321849-.240427.1072257-.449968.2741119-.609053.4850725-.812543.9243107-1.535164 1.9251008-2.157918 2.9885988-3.193535 5.45994-7.728355 10.0577842-11.485322 15.1315053-.245718.2499239-.265377.6461894-.045622.9195688l.764168 1.5080929c.426565.8460034 1.113175 1.8391377 2.034738 1.6621207.422003-.0781633.757324-.3908167 1.067553-.6896766l3.421645-3.3035511 3.59729-3.4667745c2.107733-2.0299482 4.249683-4.1081738 5.625184-6.7036569 1.072116 1.8759205 2.979113 3.1035449 4.286181 4.8277364.497279.6528939.912439 1.3793533 1.345847 2.0690299.711702 1.1080805 1.521492 2.1494922 2.329 3.188605l4.126504 5.3082112c.56115.7218615 1.140548 1.4621142 1.909278 1.9517852.97859.623008 2.167042.78853 3.316715.891981 1.550128.139444 3.106486.19623 4.662561.170121 1.186171-.020691 2.408838-.098854 3.474111-.629905 1.065272-.531051 1.938932-1.6092455 1.884186-2.8230764-.065223-.6237723-.26869-1.224802-.595367-1.7586754-1.464464-2.7357173-3.391991-5.0001556-6.170366-6.3289325z" fill="#2f2e41"/><circle cx="164.5" cy="63.162188" fill="#e8e8f0" r="1.5"/><path d="m163.906606 62.0796915c.313022.6292051.367852 1.3574849.15262 2.027179-.215402.660705-.516415 1.2897829-.895217 1.8708885-.325927.5998917-.716279 1.1617807-1.164009 1.6755255 2.148064.1057258 4.232346-.744678 6.127563-1.7766546 1.526196-.82742 3.047836-1.8525014 3.872437-3.4016155-.490233.1197917-1.007824.0236986-1.42369-.2643148-.409042-.2881728-.77562-.6332863-1.088838-1.0250814l-1.079727-1.2250412c-.253381-.2662293-.475781-.5608017-.66287-.8779846-.234019-.4339139-.333232-.9288341-.284738-1.4204043-.428484.4529809-.907795.8540701-1.428246 1.1951622-.769932.5056456-1.61959.8733878-2.3918 1.3790333-.273348.176976-.883827.4596778-.726651.8251216.157175.3654438.781321.632057.993166 1.0181863z" fill="#fbbebe"/><path d="m163.906606 62.0796915c.313022.6292051.367852 1.3574849.15262 2.027179-.215402.660705-.516415 1.2897829-.895217 1.8708885-.325927.5998917-.716279 1.1617807-1.164009 1.6755255 2.148064.1057258 4.232346-.744678 6.127563-1.7766546 1.526196-.82742 3.047836-1.8525014 3.872437-3.4016155-.490233.1197917-1.007824.0236986-1.42369-.2643148-.409042-.2881728-.77562-.6332863-1.088838-1.0250814l-1.079727-1.2250412c-.253381-.2662293-.475781-.5608017-.66287-.8779846-.234019-.4339139-.333232-.9288341-.284738-1.4204043-.428484.4529809-.907795.8540701-1.428246 1.1951622-.769932.5056456-1.61959.8733878-2.3918 1.3790333-.273348.176976-.883827.4596778-.726651.8251216.157175.3654438.781321.632057.993166 1.0181863z" fill="#000" opacity=".1"/><path d="m163.648314 62.9123872c-.411825.6818678-.500239 1.4773803 0 2.0956071.06282.0772783.293163.5545858.393211.5591316.09683-.0094605.186501-.0540706.251282-.1250091.532813-.4750346.930677-1.0818969 1.396015-1.6205725.465339-.5386756 1.058645-1.0273475 1.770613-1.1364463.858549-.1295549 1.689178.3136592 2.4407.7432359.326886.1556903.612094.3837167.832955.6659575.158399.2798238.252113.5901523.27455.9091571.258263 1.9115028.253609 3.8480073.246629 5.7754203 0 1.3955561 0 2.7979309-.279203 4.1662123-.139601.7091425-.349003 1.4023748-.449051 2.1160631-.071779.6300544-.100539 1.2640783-.086088 1.8978654v2.6547386c-.018862.4871528.016243.97487.104701 1.4546513.127968.5818605.409498 1.1182632.59796 1.6842135.194578.6504249.327755 1.316894.397865 1.991054l.37227 2.7479272c.116335.8659721.202422 1.8183142-.332717 2.500182-.232669.3136592-.560732.5659503-.805035.8796094-.930677 1.1682669-.62588 2.838843-1.009784 4.2684925-.302068 1.0466318-.923829 1.9783235-1.782246 2.6706489-.658454.545494-1.507697.972798-2.352286.820514-1.142406-.206833-1.82878-1.3637354-2.140556-2.4706341-.311777-1.1068987-.423458-2.2956216-1.098199-3.2229618-.551426-.7591462-1.396015-1.2364536-2.177784-1.7774021-.781768-.5409484-1.526309-1.2387265-1.693831-2.1569751-.074454-.4000292-.02792-.8114227-.072128-1.2159976-.123896-1.0445708-.821652-1.9397448-1.819473-2.3342608-.583999-.2272893-1.305274-.3022947-1.628684-.82506.851569-.4682159 1.414629-1.3341881 1.712445-2.245618.297817-.91143.358311-1.8796823.416478-2.8342972l.195442-3.1934142c.086088-1.4273766.125642-2.8411158.770135-4.1230273.286183-.5750419.644494-1.1114445.944637-1.6773948.395897-.796377.734098-1.6189115 1.012111-2.4615428.465338-1.3091862.930677-2.6183724 1.349481-3.9434688.166659-.6401033.415248-1.2571324.739888-1.8364973.330391-.5545858.846916-1.2796385 1.507697-1.4001019z" fill="#387ed1"/><path d="m157.09351 83.6320361.856119.030152.181811-1.301176c.023174-.2609748.083635-.5172071.179508-.7607588.141707-.2567127.306569-.4997282.492499-.7259681.842311-1.1991229.780174-2.783264.989601-4.2467971.278469-1.9436461 1.083957-3.7620453 1.88024-5.5502924l1.666211-3.7318933c.329976-.6339839.488712-1.3442779.46028-2.0596154.016109-.5775273.184111-2.6742529.200221-3.2471414 0-.2133836-.460279-.0950949-.563842-.2852846-.207126-.4151702-.492499.7097323-.881435.9555873s-.605267.695816-.768666 1.127222c-.359018.9393516-.577651 1.9274104-.920559 2.8760395-.342908.9486292-.798584 1.8810227-1.551141 2.5513254-.340606.3015203-.731844.5380978-1.054039.8604925-1.033327 1.0298077-1.134589 2.6556978-1.171411 4.1238696-.018411.8604925-.193317 9.3842388.004603 9.3842388z" fill="#2f2e41"/><path d="m168.953159 60.7586177c-.846807.3213912-1.311261 1.2086119-1.548179 2.0596196-.236919.8510076-.335439 1.7608615-.79051 2.5235998-1.06496 1.785758-3.77662 2.3063212-4.524907 4.2369317-.234572.6314657-.234572 1.3240411-.302598 1.9962466-.136053 1.3828874-.607544 2.7159819-.745942 4.1011326-.073855 1.0743995-.047949 2.1530201.077409 3.2229651l.938291 10.9069305c.138398 1.5843227.133707 3.2659681-.283833 4.7959712.959402.1788022 1.958682-.0611096 2.847712-.4526636.889031-.3915541 1.702998-.9302238 2.559188-1.3851507 1.473116-.7853715 3.098705-1.3398844 4.388855-2.3855374.233821-.1754898.433898-.3892221.591123-.6314658.25803-.4300305.281487-.952857.403465-1.4372071.111247-.3871644.253191-.7654998.424576-1.1316591.472571-1.0992794.884433-2.2219507 1.233852-3.3632908.240004-.7569176.42884-1.5280665.565321-2.3085846.103212-.6201492.159509-1.2493517.215806-1.8762908.068732-.9823437.27062-1.951757.600506-2.8834674.824329-2.2209062 1.29184-4.5503766 1.386325-6.9076472.026567-.3403546.002076-.6826274-.072718-1.0162298-.144692-.4045049-.336718-.7917707-.572357-1.1542923-.394082-.7152086-.631-1.5028433-1.001625-2.2316318-.83977-1.6409057-2.324615-2.887994-3.877486-3.9313837-.755324-.5092466-1.6467-1.0728128-2.512274-.746895z" fill="#2f2e41"/><path d="m150.079016 79.2070664c-.658692-.3303855-1.254866-.7638229-1.763806-1.2823423-.229364-.2586605-.422029-.5502016-.658274-.804478-.595486-.6080658-1.369427-1.0298546-2.22024-1.2100051-.844053-.1771443-1.707216-.2573559-2.571166-.2389321-.578188-.0351996-1.158214.0316772-1.711053.1972834-.562161.1757129-.990211.6154423-1.133057 1.1639722-.12615.6576115.323403 1.2954946.862408 1.718558.501926.391387 1.092543.6653582 1.724814.8000939.515375.085215 1.035301.1430276 1.557379.173171 3.068886.3068853 5.807488 1.9026891 8.486455 3.3560104 2.362446 1.2786889 4.77 2.472619 7.222661 3.5817903.096674-.7026015.137312-1.4112107.121563-2.1197009-.013762-.5282812-.041285-1.3349512-.564234-1.6462206-.607814-.3616863-1.605546-.4384077-2.293637-.6576115-1.580883-.4953941-3.124955-1.0922558-4.621677-1.7865111-.827239-.38726-1.63995-.8022859-2.438136-1.2450776z" fill="#fbbebe"/><ellipse cx="163.237018" cy="56.296388" fill="#fbbebe" rx="5.474169" ry="5.44517" transform="matrix(.25426437 -.96713475 .96713475 .25426437 67.285467 199.854415)"/><path d="m170.478126 67.3509458c-.488401.5603139-.733749 1.2832996-1.061643 1.9475427-.674132 1.3691542-1.733482 2.5440059-2.263157 3.9764214-.559484 1.5092326-.54114 3.3031409-1.637178 4.4892893-.190316.2055991-.419612.4044201-.474643.6777991-.007542.1660334-.026696.3313568-.057325.4947933-.155921.4292728-.871327.4518661-1.004319.8901762-.03898.1287818-.018343.2688603-.066496.3953828-.110062.2824163-.488401.3253436-.742921.4970527-.531968.3547148-.424198 1.1771111-.802538 1.689979-.338222.390811-.864635.5706237-1.375779.4699407-.496973-.1004643-.975047-.2765405-1.417053-.5219053-.156983-.0859292-.330279-.1390013-.509038-.1558937-.211845.0066116-.416933.07502-.589292.1965617-1.008905.6326125-1.483549 1.8865408-1.476744 3.0704299.006953 1.1838891.419686 2.3225916.841592 3.4296634.05836.1866328.153412.3601299.279742.5106087.334773.3479368.917186.2937129 1.362022.0994105.444835-.1943024.848397-.499312 1.325334-.5851665.846104-.1513752 1.673865.4224947 2.522262.3750488.628273-.0361493 1.185463-.3953828 1.705967-.7433197.834639-.5557952 1.683036-1.1296651 2.292965-1.9159121.376047-.4834967.651203-1.032514.979097-1.5499006.419589-.6303764.879094-1.2340617 1.375779-1.8074643l3.150535-3.8001936c.316268-.3598495.600139-.7461473.848397-1.1545177.286754-.551598.508327-1.133794.660375-1.7351657.300378-1.0144393.60305-2.0333973.653495-3.0930232.017513-.8694006-.059356-1.7381546-.229297-2.5914519-.108743-.8505058-.340385-1.6813144-.68789-2.4671887-.648909-1.4098222-2.315895-2.5688586-3.602249-1.0889972z" fill="#2f2e41"/><path d="m179.793562 65.1217549c.503456-1.9092974.073787-3.9482267-1.154882-5.4803073.823304-3.5702253-.96992-7.1450367-4.127799-8.4681067.112782-3.3478028-1.973674-6.4204437-5.187944-7.2826176-3.340585-.891983-6.766883.9011552-8.208229 4.0884469-2.030066-1.0708383-4.177423-.9561875-4.88569.302678-.739846 1.316191.372178 3.3867841 2.48119 4.6227195.664746.3949142 1.392202.6688369 2.149614.8094345.657722 1.8912788 2.070909 3.4120038 3.890958 4.1870465-.113265 2.7608237 1.319271 5.3492724 3.699229 6.6841405.12749.9408951.469684 1.8384375.999243 2.6209168-.06206.1641738-.114778.3318409-.157894.5021705-.663154 2.5567124.771425 5.1569921 3.200736 5.8059155 2.429312.6489234 4.93757-.8965691 5.598469-3.4532815.177636-.6815928.208413-1.3941402.090225-2.0889372.779587-.7856274 1.336682-1.7701689 1.612774-2.8502184z" fill="#3f3d56"/><path d="m157.60103 49.0460838c.700629-1.2825108 2.822597-1.4016512 4.833001-.3083633 1.421339-3.2471584 4.81515-5.0763131 8.119709-4.1652399.149497.0397135.296763.0887713.44626.1401651-.565138-.364942-1.178677-.6404603-1.820743-.8176298-3.304558-.9087371-6.693906.9180815-8.119709 4.1652399-2.008172-1.0909518-4.132371-.9741475-4.833.3083633-.731867 1.3409129.368165 3.4503978 2.454432 4.7095477.391558.2359093.804049.4314988 1.231679.5840213-1.994784-1.2755025-3.025646-3.3078966-2.311629-4.6161043z" fill="#000" opacity=".1"/><path d="m171.140812 67.667596c.044984-.1659247.099988-.3292559.164738-.4891841-.552544-.7630554-.909557-1.6381162-1.042557-2.5553726-2.483151-1.2992098-3.977963-3.82016-3.859581-6.5090525-1.898942-.7549997-3.373386-2.2363983-4.059619-4.0787679-.460792-.0779917-.911343-.2030628-1.343793-.3730308.726052 1.7167438 2.147985 3.0848721 3.946656 3.7973195-.118174 2.6894278 1.376458 5.2109383 3.859581 6.5112862.133015.9165632.490043 1.7908948 1.042557 2.553139-.06475.1599281-.119754.3232593-.164738.4891841-.689547 2.48166.79545 5.0057606 3.315944 5.6490712-1.654611-1.1352802-2.39516-3.1247187-1.859188-4.9945921z" fill="#000" opacity=".1"/><ellipse cx="164.907202" cy="57.287459" fill="#fbbebe" rx="1" ry="1.121375" transform="matrix(.79631882 -.60487712 .60487712 .79631882 -1.06338 111.41697)"/><circle cx="98.5" cy="6.162188" fill="#3f3d56" r="3.5"/><ellipse cx="106.5" cy="14.162188" fill="#3f3d56" rx="10.5" ry="13.5"/><path d="m106.501149 24.4637731c-5.259766 0-9.6164789-5.121221-10.3816611-11.801585-.0795963.6967792-.1194879 1.397697-.1194879 2.0992075 0 7.6759613 4.70139 13.9007925 10.501149 13.9007925s10.498851-6.2248312 10.498851-13.9007925c0-.7015105-.039892-1.4024283-.119488-2.0992075-.762884 6.6897564-5.119597 11.801585-10.379363 11.801585z" fill="#000" opacity=".1"/><path d="m128.937394 54.1762144c-.230509.8578717-1.200952 1.557037-2.279735 2.0395898-2.272819 1.0187226-5.071198 1.3211223-7.788899 1.4240669-.691473.0390377-1.385187.0268461-2.074582-.0364596-1.42224-.1565615-2.740752-.7206121-3.563669-1.5248667-.117368-.087806-.198747-.2104659-.230509-.3474381.011609-.1660283.094717-.320678.230509-.4289358 1.449902-1.4712498 3.865636-2.3763043 6.290591-3.019708 1.844072-.4954209 5.057368-1.777939 7.069712-1.60422 1.954716.1565616 2.632413 2.4041852 2.346582 3.4979715z" fill="#3f3d56"/><path d="m128.937394 54.1762144c-.230509.8578717-1.200952 1.557037-2.279735 2.0395898-2.272819 1.0187226-5.071198 1.3211223-7.788899 1.4240669-.691473.0390377-1.385187.0268461-2.074582-.0364596-1.42224-.1565615-2.740752-.7206121-3.563669-1.5248667-.117368-.087806-.198747-.2104659-.230509-.3474381.011609-.1660283.094717-.320678.230509-.4289358 1.449902-1.4712498 3.865636-2.3763043 6.290591-3.019708 1.844072-.4954209 5.057368-1.777939 7.069712-1.60422 1.954716.1565616 2.632413 2.4041852 2.346582 3.4979715z" fill="#000" opacity=".1"/><path d="m100.621477 46.9230614c-.6852098 1.3641662-.8092827 2.9484255-.345005 4.4052961.473329 1.4487122 1.360004 2.7221249 2.547555 3.6587144 2.917694 2.3765413 6.920668 2.7034607 10.651751 2.6733192 3.271619-.0299148 6.538579-.2575384 9.783526-.6816616 1.080711-.1414332 2.172847-.3083708 3.173591-.7465818 1.2178-.5355913 2.284803-1.5163493 2.7212-2.7822923s.127949-2.833301-.913921-3.6819002c-.913921-.7465817-2.154569-.8485991-3.317534-.9274307l-6.6602-.405751c.658023-.6770244 1.533103-1.0595896 2.335068-1.5488094 1.062434-.6538387 1.768438-1.748207 2.542986-2.7336021 1.142401-1.474615 2.513283-2.7637437 3.884165-4.0459168.22848 1.2613059 1.003028 2.2977098 1.928373 3.1694947s1.992348 1.5719951 2.956535 2.3997271c2.330499 2.0078876 4.007544 4.7345341 6.459138 6.5893956 1.686562-.4500347 3.263292-1.2488695 4.631295-2.3463999l-.952763-1.7505255c-.078197-.1833567-.201764-.3430933-.358714-.4637154-.271891-.1669375-.619181-.0811502-.932199-.1275217-.836238-.1275218-1.201807-1.1082798-1.530818-1.8989145-.900213-2.1748252-2.627523-3.8604306-4.112645-5.6828321-1.083127-1.3435137-2.042931-2.7847121-2.867428-4.3055973-.495802-.9065636-.948193-1.8548615-1.62221-2.6362219-.674017-.7813605-1.613071-1.3911462-2.636662-1.3911462-.913921 0-1.73645.4637154-2.513283.9274308-2.366411 1.4267586-4.643394 3.0009995-6.817852 4.7136668-1.142401.8949707-2.268809 1.8432687-3.603134 2.3927714-.562062.2318577-1.142401.3895209-1.693039.6700687-.943623.4938569-1.661052 1.3285446-2.433315 2.0681707-2.750902 2.6408591-6.518542 4.3519688-10.304461 4.4887649z" fill="#605d82"/><path d="m113.964548 28.5971059c-.031054.8012954-.208448 1.5911145-.524089 2.3334226-.322972.7455102-.954066 1.3284558-1.742176 1.609257-.554609.1428353-1.13603.160929-1.6991.0528755-.492036-.0509878-.965709-.2081676-1.385604-.4597877-.653316-.4322004-.978777-1.2023448-1.098432-1.9563967-.119655-.7540518-.064614-1.5241962-.141193-2.2828459-.074536-.6131653-.196117-1.2202041-.363751-1.8161615-.050255-.1977087-.102903-.3954174-.155551-.5931261-.052649-.1977088-.098118-.3954175-.143586-.5931262-.045469-.1977087-.081366-.3701291-.114869-.558642-.033504-.188513-.052648-.3172536-.0694-.4758803-.015259-.4740174-.095727-.9440128-.23931-1.3977547-.136311-.2937377-.307345-.5714359-.50973-.8276178-.086151-.1195448-.16991-.2298939-.23931-.3609334-.222781-.320283-.326496-.7034316-.294351-1.0873979.009169-.0595287.024398-.1180491.045469-.1747194.007322-.0219791.016115-.0434806.026324-.0643702.173226-.0456833.311946-.1703479.37093-.3333461.032733-.173249.017043-.3517386-.045469-.5172612-.07034-.2311749-.16747-.4540345-.289564-.6643932-.078973-.1379363-.349393-.3885206-.351786-.5471474 0-.3195525.646137-.5770336.909378-.7034752.804119-.387468 1.701209-.5620484 2.598905-.5057665.574344.036783 1.196549.2069045 1.514831.6712901.287172.4161078.23931.9563584.370931 1.4414344.01099.0708233.041569.1375141.088544.1931109.062485.0545834.141104.0891325.224952.0988543.140187.027164.283996.0325969.425971.0160926.037933-.001976.07559-.0073637.112476-.0160926.221299-.0393124.430629-.1257198.612633-.2528832.119655-.0321851.23931-.0551745.356572-.075865h.014358c.47862 1.4437334.538448 2.9886201.928523 4.4645387.193841.7310624.478619 1.4529291.50973 2.206981v.0988543c0 .2436875-.014359.487375 0 .7287636.004345.1080543.017144.2156416.038289.3218514.043168.171188.095892.3400209.157945.5057664.016752.0528756.033503.1057512.047862.1609257.011834.0385386.021421.0776814.028717.1172459.070131.4113182.07819.8301988.023931 1.2437258z" fill="#fbbebe"/><circle cx="107.5" cy="14.162188" fill="#fbbebe" r="5.5"/><path d="m142.538082 42.6621881c-.158419-1.4445471-.685441-2.827402-1.532957-4.0223292l.424404 2.4531912c-.359721.10047-.746356-.0157167-.985637-.2961917-.229321-.2787749-.404578-.5959821-.51717-.9360564-.617651-1.4945711-1.425643-2.9074804-2.404956-4.2054707-3.460167-.2826257-6.883228-1.6799272-9.925949-3.3123734-3.042721-1.6324461-5.892953-3.583694-8.898568-5.2817093-.521114-.3063857-1.063572-.5768592-1.623403-.8094401-.939254-.3662829-1.994466-.5562074-2.885019-.9880595l-.178574-.0927012c-.201869-.1055729-.39291-.2297407-.57051-.370805-.095413-.0767943-.186022-.1590916-.27134-.2464496-.444778-.503751-.797755-1.0780618-1.043617-1.6980153-.477744-1.0310186-.649361-2.2768328-1.124786-3.3078514.21936-.1990745.465049-.3686464.730531-.5042043l.115958-.0565251c.188937-.0859998.385277-.1556063.586744-.2080125.115957-.0316541.231915-.0542642.345553-.0746132h.013915c.538974-.0846985 1.090926-.0420525 1.609488.1243553.756042.2509716 1.391488.7483929 2.031573 1.2209431 1.008829.7438709 2.057083 1.4447826 2.973146 2.2971818.524128.4906382 1.004191 1.0287576 1.567744 1.4741757.469876.353629.96512.6740036 1.481935.9586665l9.169907 5.3246685c1.03434.5991665 2.070999 1.200594 3.082147 1.8381976 1.537594.9654495 3.014891 2.0122951 4.499145 3.0591408l2.618317 1.8495027c.286816.1812326.538136.4109379.742127.6783017.179526.2997991.291032.6336408.327.9790155.217573 1.3926087.095211 2.8156128-.357148 4.1534675z" fill="#fbbebe"/><path d="m115.927245 32.6261088c-.362053 1.6385998-1.992431 2.6300797-2.846331 4.0699213-1.061112 1.7865128-.62847 3.8642296-.227706 5.9119015l-2.183705 1.9090034c-.400764.3489825-.803804.6933426-1.23417 1.0099691-.631208.4306452-1.290834.8167455-1.974215 1.1555711l-1.930951 1.0076579c-.59905.3416009-1.233705.6144552-1.892241.8135221-1.270602.3304933-2.618624.0993791-3.87101-.2819594-.1482319-.0392139-.2906609-.0982816-.423534-.1756468-.0781002-.047688-.1461882-.1105126-.2003818-.1848914-.1248199-.2252233-.1698251-.4870603-.1275156-.7418766.1275156-2.1447399.6444094-4.245568 1.1590264-6.3302182.270421-1.2519399.63662-2.4805698 1.095268-3.674716.451788-1.0221943.971393-2.012096 1.555235-2.9628842.68312-1.1717491 1.366239-2.3527427 2.277065-3.3580895.389378-.4344947.824298-.845878 1.056558-1.3866853.321066-.7441877.195828-1.5969992.261863-2.4058989.049227-.6089359.208223-1.2035176.469075-1.7541569.139518-.2963491.307304-.5781132.500954-.8412557.088806.2080028.175334.4160056.26414.6216972l.17078.406761c.075143.1733357.148009.3489825.227706.5223181.212526.4961252.423534.9930208.633024 1.4906867.226024.6268745.549686 1.2128788.958644 1.7356677.43492.4992067 1.074775.862056 1.726016.7904106.619338-.1048451 1.159436-.4867053 1.470984-1.0400139.305076-.5472935.525487-1.1389154.653517-1.7541569.179401-.7486441.20421-1.5268705.072866-2.2857195-.227706-1.462953-.831128-2.9559508-1.275156-4.3149024-.18112-.4527766-.285811-.9332814-.309681-1.4213524-.000338-.0551115.005005-.1101076.01594-.1640911v-.0416005c.185508-.0879068.378286-.1590568.576097-.2126251.113853-.032356.227706-.0554674.339283-.0762677.391655 2.157066.784069 4.3095097 1.177242 6.4573311 0 .0508451.020494.1016902.029602.1525354.05465.309693.111576.6170749.175334.9244568s.118407.5569853.186719.8320112c.022771.0924457.047819.1872025.072866.2796482.070589.2542256.14801.503829.227707.7534323.555604 1.5091758 1.482369 3.0137293 1.143086 4.5645057z" fill="#387ed1"/><path d="m137.00363 55.7611983c-.019611.3137572.040469.6273747.174597.9113936.331054.6106337 1.133747.7496212 1.813995.8065833 4.034861.3342127 8.094355.2103931 12.101615-.3691144.217685-.0159711.428757-.0822509.616758-.1936711.569141-.4010132.226749-1.3784828-.403614-1.6929136s-1.360496-.2278484-2.040744-.3713929c-.678512-.172423-1.324786-.4540378-1.913765-.8339251-1.383171-.7989884-2.743668-1.6344325-4.081489-2.5063324-.800425-.5172158-1.74597-1.0686089-2.646165-.7610136-2.446626.8293682-3.639328 2.3650663-3.621188 5.0103862z" fill="#2f2e41"/><path d="m107.75269 25.2456175-.020364.1111265-.03394.1859668c-.11087.5715077-.248892 1.1339438-.405015 1.7077194-.432167 1.5625746-1.009143 3.1024703-1.583858 4.6174193l-4.618076 12.2012356c-.389177 1.0250853-.776091 2.0410989-1.2173082 3.0525768-.1470725.3333795-.2986703.6803663-.4525307 1.0114779-.5407743 1.2178557-1.0611848 2.4765334-1.2331465 3.776033-.1131327.8595294-.2262654 1.737202-.0565663 2.5876598.169699.8504579.6787962 1.6827727 1.4956143 1.9957412.3937014.1542163.9571024.3605941.8484954.7710818-.056567.2267888-.312246.3356474-.5430371.3719336-.6127419.099039-1.2375902-.0814467-1.7037785-.4921317-.4299042-.3810051-.7625144-.9774595-1.3349658-1.0409604-.3959645-.0430899-.7602518.1950383-1.131327.3605941-1.4820384.6803663-3.2061807.2041099-4.7628866-.2789501.1221833-.6304728.7557264-1.0477641 1.3824816-1.172498.6267551-.1247338 1.2783995-.0385541 1.9209932-.0544293.2055522.0107697.4094134-.0422934.5837647-.1519484.1575618-.1411636.2701063-.3257532.3235595-.5306858.4123257-1.2263171.7189085-2.4858346.9163749-3.7646935.2081641-1.3380537.294145-2.6942505.58829-4.0141612.2262654-1.029621.5837647-2.0274915.8869604-3.0389694.5885816-2.0816918 1.0711503-4.1920414 1.4458359-6.3228708.189883-.8844401.3258936-1.7796423.4072777-2.6806433.052041-.7484029.0271518-1.5013416.0995567-2.2452088.1201621-.9692587.3214946-1.926662.6018664-2.8620742.276043-1.0228173.549825-2.0410989.825868-3.0616483.407278-1.5104132.84397-3.0775236 1.87574-4.2500215.723975-.8353518 1.761274-1.332206 2.86452-1.3721005.204699-.0009052.408858.0211554.608654.0657972l.099557.0249467c.218511.0564133.427986.1434511.62223.2585392.319034-.2041099.479683-.1315374.692372.1791632.184596.3318108.271673.7092329.251155 1.088586.016287.994455-.065567 1.9880876-.244367 2.9663971z" fill="#fbbebe"/><path d="m108 25.817646-.011418.014194-.060894.0757013-.607041.7546468-.298763-1.556607-1.021884-5.3322068c.172157-.0009739.343859.0220378.511893.0686043.007291-.0612565.019401-.1214754.036156-.1797905l.047574.2058128.346337 1.464346.656518 2.7796553.108468.4589389z" fill="#387ed1"/><rect fill="#3f3d56" height="7" rx="3.5" width="12" x="103" y="6.662188"/><circle cx="115.5" cy="6.162188" fill="#3f3d56" r="3.5"/><path d="m115.142096 2.66863377h-.142096c2.064383.08042796 3.692384 1.62218423 3.692384 3.49677717 0 1.87459293-1.628001 3.4163492-3.692384 3.49677716h.142096c2.130662 0 3.857904-1.56700338 3.857904-3.5s-1.727242-3.5-3.857904-3.5z" fill="#000" opacity=".1"/><path d="m98.8579041 2.66863377h.1420959c-2.064383.08042796-3.6923837 1.62218423-3.6923837 3.49677717 0 1.87459293 1.6280007 3.4163492 3.6923837 3.49677716h-.1420959c-2.1306616 0-3.8579041-1.56700338-3.8579041-3.5s1.7272425-3.5 3.8579041-3.5z" fill="#000" opacity=".1"/><path d="m114.86512 12.8611805h-9.739678c-.620644.0000015-1.124141-.5363999-1.125442-1.1989924v.7984887c.001298.6630016.504416 1.2001257 1.125442 1.2015113h9.749116c.621026-.0013856 1.124144-.5385097 1.125442-1.2015113v-.7984887c-.001247.3197683-.121593.6258726-.334493.8508004-.212901.2249279-.500867.3502017-.800387.348192z" fill="#000" opacity=".1"/><path d="m146.275487 50.6529097s.615435.102407.715622-.3732166c.050093-.2275711-.119271-1.6885776-.312488-3.1495841-.093031-.7191247-.193218-1.4359737-.274322-2.0094529-.097802-.7031947-.169364-1.1879212-.169364-1.1879212l-.112114-.3550109-.663143-2.1255141-.624976-2.0026258-.460383-.787396-3.313329 1.5383807-2.06099 3.3976366.639289.3845952.112114.0682713 1.176005 1.1742669 3.29663 3.2997811 1.483722 1.4860393.174135.172954z" fill="#ffe09c"/><path d="m144.368618 36.6621881s-3.585687 1.732409-4.447948 3.6152513c0 0-.80572 1.5844021-.907024 2.4263432 0 0-.23559.7691507 1.250986.9584055 0 0 .676144-2.8266898 2.704578-4.0544194l2.03079-1.2253033z" fill="#e7c4c3"/><ellipse cx="144.073917" cy="41.137866" fill="#ff7f8e" rx="1.185711" ry="1.004655" transform="matrix(.25890199 -.9659036 .9659036 .25890199 67.037681 169.648705)"/><ellipse cx="143.700434" cy="45.275085" fill="#ff7f8e" rx="1.180703" ry="1.000413" transform="matrix(.25747011 -.96628626 .96628626 .25747011 62.953175 172.47386)"/><path d="m141.218497 44.6621881c.367788-.1312727.641125-.4102972.73428-.7495583.168225-.5516749-.127306-1.101351-.659261-1.2252779-.531956-.123927-1.098011.2218692-1.263963.7735441-.013079.037274-.022958.0753586-.029553.1139329l.106846.0599646z" fill="#ff7f8e"/><path d="m145.490782 43.6378318c.174781.0559103.360128.0145492.509218-.1136344l-.438275-1.8620093c-.265144.1244291-.4638.4077875-.529713.7555691-.115086.5562104.089862 1.0964722.45877 1.2200746z" fill="#ff7f8e"/><path d="m145.880521 47.6400348c.402947.0658386.826412-.0172988 1.119479-.2197833-.110531-.6201028-.229564-1.2382434-.325924-1.7327558h-.036844c-.663185-.1236281-1.368883.217821-1.578608.7594298s.161545 1.0714436.821897 1.1931093z" fill="#ff7f8e"/><path d="m145.758649 49.6621881c.080735-.1243629.142282-.2582962.1829-.3980115.208224-.7087172-.157575-1.4122988-.816013-1.5715034-.40548-.0896392-.832762.0214891-1.125536.2927311z" fill="#ff7f8e"/><path d="m144.405204 40.6621881.594796.0847066c-.233704.227943-.371913.4799085-.405204.7387205-.001704.0170607-.001704.0341572 0 .0512179.078066.3250371-.594796-.0847066-.594796-.0847066s.115242-.6678033.405204-.7899384z" fill="#94cc79"/><path d="m142.401487 42.6621881.598513.0848738c-.23574.2272368-.3741.479302-.405204.7382048-.001839.0170924-.001839.0342266 0 .051319.078066.3256786-.594796-.0848738-.594796-.0848738s.111524-.6691214.401487-.7895238z" fill="#94cc79"/><path d="m144.405204 43.6621881.594796.0829c-.233704.2283929-.371913.4808558-.405204.7401786-.001839.0170924-.001839.0342266 0 .051319.081784.3256786-.594796-.0848738-.594796-.0848738s.122677-.6691214.405204-.7895238z" fill="#94cc79"/><path d="m145.401487 45.6621881.598513.0829c-.235471.2280059-.373795.4806796-.405204.7401786-.001839.0170924-.001839.0342266 0 .051319.078066.3256786-.594796-.0848738-.594796-.0848738s.115242-.6691214.401487-.7895238z" fill="#94cc79"/><path d="m146.405204 48.6621881.594796.0848409c-.233302.2276838-.371501.4793597-.405204.7379182-.001987.0170834-.001987.0342156 0 .0512991.081784.3255521-.594796-.0828678-.594796-.0828678s.115242-.6708348.405204-.7911904z" fill="#94cc79"/><path d="m144.400749 46.6621881.599251.0840121c-.236735.2283666-.373594.4812459-.400749.7404784-.002002.0169166-.002002.0338814 0 .050798.078652.3223719-.599251-.0820583-.599251-.0820583s.11236-.6740503.400749-.7932302z" fill="#94cc79"/><path d="m145.020769 37.311019s-.467512-1.2228313-1.020769-.3110091c.046635.7403286.257552 1.4543532.612461 2.0733939 0 0 1.692436 5.3130721 1.551569 6.1259368 0 0 .667583 5.1316501.502219 5.4190979 0 0 .183738.3628439.314397-1.001355.130658-1.364199-.443014-5.3719754-.443014-5.3719754l-.839072-4.165637-.561423-1.4136777z" fill="#e7c4c3"/><path d="m145.020769 37.311019s-.467512-1.2228313-1.020769-.3110091c.046635.7403286.257552 1.4543532.612461 2.0733939 0 0 1.692436 5.3130721 1.551569 6.1259368 0 0 .667583 5.1316501.502219 5.4190979 0 0 .183738.3628439.314397-1.001355.130658-1.364199-.443014-5.3719754-.443014-5.3719754l-.839072-4.165637-.561423-1.4136777z" fill="#fff" opacity=".2"/><path d="m139 39.3568669s1.044473 2.959439 2 2.1720883l-.762389-3.8667671z" fill="#fbbebe"/><path d="m74.2990588 50.6621881s8.4011255 14.0446119 10.364092 15.9212131c0 0 8.3941729 8.6470838 4.1275599 8.0491471-.3128695-.0436954-6.4566996-5.1974493-6.8159201-6.0437596-.3592205-.8463104-11.9747906-15.8200238-11.9747906-15.8200238l1.6570496-1.5132397z" fill="#a0616a"/><path d="m74.2990588 50.6621881s8.4011255 14.0446119 10.364092 15.9212131c0 0 8.3941729 8.6470838 4.1275599 8.0491471-.3128695-.0436954-6.4566996-5.1974493-6.8159201-6.0437596-.3592205-.8463104-11.9747906-15.8200238-11.9747906-15.8200238l1.6570496-1.5132397z" fill="#000" opacity=".1"/><path d="m82.8075567 96.5784163s-2.6404137 3.190047-1.5387239 4.4660657c1.1016899 1.276019 6.5896532 3.715855 8.3605513 3.614653 1.8710518-.105601 8.1420343.220004 8.3628275-2.552037 0 0 .4393102-1.276019-5.2808274-1.489422s-3.9628967-5.9554879-3.9628967-5.9554879z" fill="#2f2e41"/><path d="m50.4252323 68.8029553s-2.657702 8.9623963 5.3154041 10.4934441l8.6375316-.436473s12.181898-2.4062553 15.5063166-.6558403c0 0 1.3288511.2261518.8843733 1.9675208-.4444777 1.7413689.6644255 13.5555397.6644255 13.5555397v3.9350415s7.5309195 0 8.4175839-.8752075c0 0-.6644256-3.4985686 0-6.3322508.6644255-2.8336822-1.1066122-11.8073861-1.1066122-11.8073861l-.1764164-5.3846747c-.0274237-1.3586631-.7956899-2.5969091-2.0093144-3.238494-.4188994-.2189169-.8846807-.3359898-1.3586356-.3414892 0 0-15.0618389-2.4039938-20.377243-1.9675208-5.315404.436473-14.3974134 1.0877903-14.3974134 1.0877903z" fill="#605d82"/><path d="m65.067 39.6621881s4.06 4.6747894 4.5103333 6.2338202c.4503334 1.5590308 5.4226667 5.5590846 5.4226667 5.5590846s-3.6096667 2.6713082-2.933 4.0069624c.6766667 1.3356541-4.7366667-4.4514128-4.7366667-4.4514128l-6.3303333-9.1215966z" fill="#387ed1"/><path d="m65.067 39.6621881s4.06 4.6747894 4.5103333 6.2338202c.4503334 1.5590308 5.4226667 5.5590846 5.4226667 5.5590846s-3.6096667 2.6713082-2.933 4.0069624c.6766667 1.3356541-4.7366667-4.4514128-4.7366667-4.4514128l-6.3303333-9.1215966z" fill="#000" opacity=".1"/><path d="m68 33.6722459s-1.9555451 6.5597195-1.9555451 9.0594412-8.2582444-.6793995-8.0402123-2.0381986c.218032-1.358799 4.7809705-6.3418431 4.9990026-8.3800417.218032-2.0381986 4.9967548 1.3587991 4.9967548 1.3587991z" fill="#a0616a"/><path d="m61.6489482 38.7968265s-7.7914725-1.9790303-8.9035532 9.2377498c-1.1120808 11.21678.8887436 12.5338588-2.4498011 19.3512772-3.3385446 6.8174183 22.7044061.8803273 22.7044061.8803273s-1.3354179-1.5400041-5.5650086-.8803273l-2.0031268-5.9370911s-.6677089-2.6387071 3.11751-2.6387071 2.0031268-7.6977456 2.0031268-7.6977456-2.0031268-6.5967679-3.11751-7.2564447c-1.1143831-.6596767-3.1083002-4.6177374-5.7860432-5.0590385z" fill="#000" opacity=".1"/><path d="m61.6489482 37.7968667s-7.7914725-1.9790278-8.9035532 9.2354634c-1.1120808 11.2144911.8887436 12.5361178-2.4498011 19.3535275-3.3385446 6.8174098 22.7044061.8803262 22.7044061.8803262s-1.3354179-1.5400021-5.5650086-.8803262l-2.0031268-5.9370835s-.6608016-2.6341544 3.1244173-2.6341544 2.0031268-7.6977359 2.0031268-7.6977359-2.0031268-6.5967595-3.1175099-7.2564354c-1.1143832-.659676-3.1152076-4.6268307-5.7929506-5.0635817z" fill="#387ed1"/><circle cx="66.5" cy="30.162188" fill="#a0616a" r="7.5"/><path d="m65 67.6921473 18.130977 10.9700408 16.869023-15.910222-20.1098475-7.089778-14.4717627 9.9719319z" fill="#dadae5"/></g><path d="m84.6299779 36.1673563-5.6299779 17.0088329 20.4186947 6.4859989 8.5813053-24z"/><path d="m86.7074473 37.2008566-5.7074473 17.0081722 18.9226468 5.4531593 8.0773532-23z" fill="#dadae5" fill-rule="nonzero"/><path d="m85 36.1936234 1.5267183 1.4685647 20.9906857-.5575326.482596-1.4424674z" fill="#000" fill-rule="nonzero" opacity=".03"/><path d="m79 52.9470474 5.4878749-17.2848593 1.5121251 1.4188208-5.4320357 16.5811792z" fill="#000" fill-rule="nonzero" opacity=".03"/><path d="m85 36.1936234 1.5267183 1.4685647 20.9906857-.5575326.482596-1.4424674z" fill="#eff0f4" fill-rule="nonzero"/><path d="m79 52.9493395 5.4878749-17.2871514 1.5121251 1.4188208-5.4320357 16.5811792z" fill="#eff0f4" fill-rule="nonzero"/><path d="m85 36.2259465 2.4013921 2.4362416 21.5986079-.591443-.336427-2.408557z" fill="#000" fill-rule="nonzero" opacity=".03"/><path d="m79 53.1332927 5.628866-17.4711046 2.371134 2.2423799-5.5715922 16.7576201z" fill="#000" fill-rule="nonzero" opacity=".03"/><path d="m79 53.6621881.517388 3.1600969 20.482612 6.8399031-.5975144-3.6665933z" fill="#000" fill-rule="nonzero" opacity=".03"/><path d="m64 64.1990537 15.3301463-10.5368656.6698537 3.2039579-15.0589599 10.7960421z" fill="#000" fill-rule="nonzero" opacity=".03"/><path d="m79 52.6621881.4456843 2.8482616 20.5543157 7.1517384-.5283886-3.3778494z" fill="#eff0f4" fill-rule="nonzero"/><path d="m64 63.5405665 15.4016298-10.8783784.5983702 2.8516809-15.1268917 11.1483191z" fill="#eff0f4" fill-rule="nonzero"/><path d="m79 52.6621881.4456843 2.8482616 20.5543157 7.1517384-.5283886-3.3778494z" fill="#000" fill-rule="nonzero" opacity=".03"/><path d="m64 63.5405665 15.4016298-10.8783784.5983702 2.8516809-15.1268917 11.1483191z" fill="#000" fill-rule="nonzero" opacity=".03"/><path d="m64 63.6621881.684953 4.0769817 18.315047 10.9230183-.4512901-4.1958841z" fill="#cccad6" fill-rule="nonzero"/><path d="m72.1036417 63.4368531s-.321986.56486.1691005.8249087c.2316446.1236297 1.9064349.4263094 3.5881745.7161997.8246547.1406821 1.6516259.2771011 2.3164458.3836785.8107561.1321559 1.371336.2131547 1.371336.2131547h.426226l2.5758877.0447625 2.4230023.0426309 1.0261855-.1939708-.5906937-3.7046285-3.0669742-3.1014007-.6416555.498782-.108873.0852618-1.6863725.7545676-4.7579797 2.1315469-2.1403959.9591961-.2501761.112972z" fill="#ffe09c" fill-rule="nonzero"/><path d="m88 65.5519839s-.5898144-4.4550626-2.2905645-6.0166793c0 0-1.3975524-1.4068619-2.2574023-1.7914041 0 0-.7319385-.5135046-1.4520332 1.0340435 0 0 2.7643111 1.6741656 3.3612317 4.2792049l.594552 2.6050392z" fill="#e7c4c3" fill-rule="nonzero"/><ellipse cx="83.561131" cy="62.896613" fill="#ff7f8e" fill-rule="nonzero" rx="1.141917" ry="1.347544" transform="matrix(.5383296 -.84273438 .84273438 .5383296 -14.427438 99.457342)"/><ellipse cx="79.394716" cy="61.954242" fill="#ff7f8e" fill-rule="nonzero" rx="1.141917" ry="1.347544" transform="matrix(.5383296 -.84273438 .84273438 .5383296 -15.55678 95.511096)"/><path d="m80 59.4602084c.0416644.4084428.338.7756407.7942883.9842249.7254499.358086 1.6335861.2639606 2.025435-.2046205.3918489-.4685812.1244385-1.1520139-.6036591-1.5100999-.049693-.0244802-.100945-.0470168-.1535624-.0675248l-.1244385.0818482z" fill="#ff7f8e" fill-rule="nonzero"/><path d="m80.1838093 65.0117654c-.1827411.1839049-.2319482.4076708-.1353682.6155786l2.9515589.0348441c-.0231207-.3430736-.3229175-.6554216-.7962839-.8296209-.7166555-.2837303-1.6270734-.2057459-2.0199068.1791982z" fill="#ff7f8e" fill-rule="nonzero"/><path d="m76.1814817 64.1503107c-.2279971.3333565-.2420662.7471598-.0371245 1.0919114.9440234.1539876 1.8906984.3033088 2.651751.419966l.0238657-.0303309c.3924592-.5412894.1219806-1.3135602-.6045992-1.7218604s-1.6387821-.3009756-2.033893.2403139z" fill="#ff7f8e" fill-rule="nonzero"/><path d="m74 62.9808977c.0874494.1411773.1877231.2645149.2980764.3666368.5594037.5174309 1.2596791.3814205 1.5618387-.2956748.1768214-.424298.1868974-.9518671.0265411-1.3896716z" fill="#ff7f8e" fill-rule="nonzero"/><path d="m84 64.2772002-.1781638.3849879c-.1845769-.261883-.4089208-.46597-.6574244-.598063l-.0516675-.0169491c-.3331663-.0823245.1781638-.3849879.1781638-.3849879s.639608.3607748.7090919.6150121z" fill="#94cc79" fill-rule="nonzero"/><path d="m82 62.2757147-.178297.3864734c-.184463-.2622427-.4090089-.4666921-.6579159-.5990338l-.0517061-.0169082c-.3316324-.0797102.178297-.384058.178297-.384058s.6400862.3599034.709622.6135266z" fill="#94cc79" fill-rule="nonzero"/><path d="m81 63.2772002-.1781638.3849879c-.1845769-.261883-.4089208-.46597-.6574244-.598063l-.0516675-.0169491c-.3331663-.0823245.1781638-.3849879.1781638-.3849879s.6378264.3559322.7090919.6150121z" fill="#94cc79" fill-rule="nonzero"/><path d="m78 63.2757147-.1781638.3864734c-.1843253-.2622427-.4087033-.4666921-.6574244-.5990338l-.0516675-.0169082c-.3331663-.0797102.1781638-.384058.1781638-.384058s.6378264.3502415.7090919.6135266z" fill="#94cc79" fill-rule="nonzero"/><path d="m74 63.2757147-.1779797.3864734c-.1849086-.2621157-.4096097-.4665174-.6585247-.5990338l-.0516141-.0169082c-.3310421-.0797102.1779797-.384058.1779797-.384058s.6371671.3574879.7101388.6135266z" fill="#94cc79" fill-rule="nonzero"/><path d="m78 62.2781301-.1781638.384058c-.1843253-.2622427-.4087033-.4666921-.6574244-.5990338l-.0516675-.0169082c-.3331663-.0797102.1781638-.384058.1781638-.384058s.6378264.3599034.7090919.615942z" fill="#94cc79" fill-rule="nonzero"/><path d="m87.0471666 65.6621881s1.5008666-.1302326.7352612-.9172093c-.8131101-.1582029-1.6636563-.146669-2.4695442.0334884 0 0-6.3886035.2269767-7.2172313-.1376744 0 0-5.7887237-.7441861-6.02214-.9786047 0 0-.4668325.0818605.9523384.584186 1.419171.5023256 5.9591176 1.0269768 5.9591176 1.0269768l4.8153778.3051163 1.7319488-.1711628z" fill="#e7c4c3" fill-rule="nonzero"/><path d="m87.0471666 65.6621881s1.5008666-.1302326.7352612-.9172093c-.8131101-.1582029-1.6636563-.146669-2.4695442.0334884 0 0-6.3886035.2269767-7.2172313-.1376744 0 0-5.7887237-.7441861-6.02214-.9786047 0 0-.4668325.0818605.9523384.584186 1.419171.5023256 5.9591176 1.0269768 5.9591176 1.0269768l4.8153778.3051163 1.7319488-.1711628z" fill="#fff" fill-rule="nonzero" opacity=".2"/><path d="m83.055553 63.8261211c-.1147503.4204175-.0495033.8801747.1751143 1.2339278.3539946.5870572.984783.7775739 1.4103297.4253396.4255467-.3522344.4801523-1.1076552.1242747-1.705789-.0244784-.0398755-.0508397-.0797511-.077201-.1174114l-.112977.0443062z" fill="#ff7f8e" fill-rule="nonzero"/><path d="m83 74.5110987 16.4937965-14.8489106.5062035 3.2778902-16.5626224 15.7221098z" fill="#cccad6" fill-rule="nonzero"/><path d="m102.16192 60.6621881-2.16192-.8487654 8.398744-24.1512346 1.601256 1.1437908z" fill="#cccad6" fill-rule="nonzero"/><g fill="#fff" fill-rule="nonzero" opacity=".1" transform="translate(81 93.662188)"><path d="m7.50684211 1.88434783c.01677248-.61559347.10008922-1.22704747.24828947-1.82217392l-.10960526.04065218c-.10734157.58658566-.15385071 1.18403675-.13868421 1.78152174z"/><path d="m8.61855263 10.4619565c-1.74026316.11-7.13552631-2.5443478-8.21592105-3.93130433-.14261606-.18690185-.22984322-.4150326-.25052632-.65521739-.06455567.39401966.02611171.79904149.25052632 1.11913044 1.08039474 1.38695652 6.47565789 4.03891308 8.21592105 3.92891308 1.83868417-.1147826 8.00118417.2391304 8.21815787-2.77391308.0149999-.08096596.0047865-.16495564-.0290789-.23913044-.496579 2.76913042-6.3973684 2.44391302-8.18907897 2.55152172z"/></g><path d="m95.8101995 50.3120076s.4009779-.4594683.0373003-.7902855c-.1748451-.1608139-1.5456302-.7765015-2.9257403-1.378405-.6783988-.2940598-1.3614601-.5835248-1.9046453-.813259l-1.1306646-.4755497-.3660089-.0918937-2.2030475-.5536593-2.0724965-.5214965-.9325069-.0252708-.3123898 3.5356088 1.9559332 3.4643912.6574173-.3308172.1142321-.0574335 1.6155681-.3583853 4.5646212-1.001641 2.0491838-.4594683.2331267-.0528389z" fill="#ffe09c" fill-rule="nonzero"/><path d="m83.071778 45.6621881s-.4193743 4.0653362.7692664 5.7989396c0 0 .9528979 1.5269325 1.6377932 2.0521194 0 0 .545931.6029925 1.5211624-.6175809 0 0-2.1192051-2.0521195-2.0968715-4.4811093l.019852-2.4314212z" fill="#e7c4c3" fill-rule="nonzero"/><ellipse cx="86.129439" cy="48.68915" fill="#ff7f8e" fill-rule="nonzero" rx="1.000352" ry="1.180775" transform="matrix(.71703227 -.69703997 .69703997 .71703227 -9.566432 73.813119)"/><ellipse cx="89.498663" cy="50.328177" fill="#ff7f8e" fill-rule="nonzero" rx="1.000352" ry="1.180775" transform="matrix(.71703227 -.69703997 .69703997 .71703227 -9.755518 76.625395)"/><path d="m87.9864251 52.2230564c.0564432-.4189155-.0651827-.8436317-.3265439-1.1402868-.418646-.4852284-1.046615-.5677172-1.4129302-.1576992-.3663153.410018-.318171 1.1427129.0983818 1.640072.0277399.0342015.0570899.0665995.0879156.0970457l.1025683-.0606536z" fill="#ff7f8e" fill-rule="nonzero"/><path d="m88.7534853 48.3260771c.169997-.2455022.2592192-.5848916.2450512-.9321422l-1.9792595-.7317468c-.0693559.5357955.0509448 1.0863456.3204515 1.4665299.4105131.6254765 1.0430384.7135291 1.4137568.1973591z" fill="#ff7f8e" fill-rule="nonzero"/><path d="m92.7492192 49.4100905c.2148484-.2447286.2994594-.5960735.2233054-.9272692-.6073071-.2967261-1.2187881-.5888159-1.7050511-.8206332l-.0229566.0208636c-.3610451.3917712-.3172189 1.0941776.0980873 1.5694031.4153063.4752254 1.04557.549407 1.406615.1576357z" fill="#ff7f8e" fill-rule="nonzero"/><path d="m95 50.2700001c-.0592772-.0974282-.1346704-.1866359-.2237321-.2647269-.4474643-.4019928-1.1186607-.45886-1.5079546-.1274611-.2315231.2064166-.3216656.5045564-.2371561.784376z" fill="#ff7f8e" fill-rule="nonzero"/><path d="m86 46.9413143.2617157-.2791262c.147491.2744685.3470639.5104537.5850116.6917476l.0505837.0291262c.3364916.1601942-.2617157.2791262-.2617157.2791262s-.5982073-.4830097-.6355953-.7208738z" fill="#94cc79" fill-rule="nonzero"/><path d="m87 49.9430598.2600884-.2808717c.1475044.2747268.3475451.5109996.5863011.6924939l.0506952.0266344c.3372333.1622276-.2622926.2808717-.2622926.2808717s-.6083424-.496368-.6347921-.7191283z" fill="#94cc79" fill-rule="nonzero"/><path d="m88 48.9430598.2617157-.2808717c.14718.2747268.3467807.5109996.5850116.6924939l.0505837.0266344c.3364916.1622276-.2617157.2808717-.2617157.2808717s-.6070045-.4818402-.6355953-.7191283z" fill="#94cc79" fill-rule="nonzero"/><path d="m91 48.9430598.2619467-.2808717c.1470097.2742038.3459582.5103848.5833267.6924939l.0528296.0290557c.3345874.1598063-.2619467.2784504-.2619467.2784504s-.6075403-.4818402-.6361563-.7191283z" fill="#94cc79" fill-rule="nonzero"/><path d="m94 49.9430598.2619467-.2808717c.1461043.2749439.3452184.5113214.5833267.6924939l.0528296.0266344c.3345874.1622276-.2619467.2808717-.2619467.2808717s-.6075403-.4842615-.6361563-.7191283z" fill="#94cc79" fill-rule="nonzero"/><path d="m91 49.9406385.2617157-.2784504c.147491.273804.3470639.5092177.5850116.6900726.0156438.0120623.0326481.0218297.0505837.0290557.3364916.1598063-.2617157.2808717-.2617157.2808717s-.6070045-.4842615-.6355953-.7215496z" fill="#94cc79" fill-rule="nonzero"/><path d="m83.9317826 44.6714838s-1.2824589-.1558184-.838268.8084489c.6383962.323223 1.3497443.4787262 2.0660572.4516474 0 0 5.3781267 1.0071739 5.9794928 1.5446343 0 0 4.6400864 1.8924029 4.7835943 2.1859737 0 0 .4077444 0-.6492021-.7926413s-4.7084235-2.2266219-4.7084235-2.2266219l-3.9362147-1.2533217-1.4851921-.1603348z" fill="#e7c4c3" fill-rule="nonzero"/><path d="m83.9317826 44.6714838s-1.2824589-.1558184-.838268.8084489c.6383962.323223 1.3497443.4787262 2.0660572.4516474 0 0 5.3781267 1.0071739 5.9794928 1.5446343 0 0 4.6400864 1.8924029 4.7835943 2.1859737 0 0 .4077444 0-.6492021-.7926413s-4.7084235-2.2266219-4.7084235-2.2266219l-3.9362147-1.2533217-1.4851921-.1603348z" fill="#fff" fill-rule="nonzero" opacity=".2"/><path d="m76.9194076 50.2993954c.6587951-.3389907 1.2550627-.7837172 1.7640822-1.3157419.2293996-.2653975.4220951-.564532.6583766-.8254312.5955788-.6239033 1.3696409-1.0566779 2.2205874-1.2415206.8441851-.1817581 1.7074829-.2640589 2.5715685-.2451553.578278-.0361163 1.1583952.0325023 1.7113204.2024218.5622484.1802895.9903653.631472 1.1332336 1.1942888.1261698.6747394-.3234533 1.3292367-.8625421 1.763319-.5020044.4015811-1.0927144.6826881-1.7250844.820933-.515455.0874345-1.0354622.1467529-1.5576227.1776814-3.0693655.3148784-5.8083958 1.952246-8.4877821 3.4434202-2.362815 1.3112436-3.7025082 1.250517-6.154789 2.3885775-.0963478-.719722-1.2066415-.1619375-1.190756-.8884069.0139365-.5420407.0414644-1.369721.5644953-1.6890977.6079087-.3711067 1.6057966-.4498263 2.2939952-.6747394 1.5811301-.5082971 3.1254438-1.1207044 4.6224002-1.8330421.8273676-.3973465 1.6402065-.8231821 2.4385169-1.2775066z" fill="#a0616a" fill-rule="nonzero"/><path d="m56.6425738 48.1361237 11.5018022 10.5260644s2.1693471-4.385104 2.8199269-4.385104-7.8069576-12.9307257-7.8069576-12.9307257-2.1693471-2.6315161-3.4705067-1.315758c-1.3011596 1.315758-5.2136119.4287556-3.0442648 8.1055233z" fill="#000" fill-rule="nonzero" opacity=".1"/><path d="m56.6438401 48.1385061 11.4994558 10.523682s2.1701745-4.3863795 2.8210024-4.3863795-7.8121791-12.9277991-7.8121791-12.9277991-2.1701745-2.6331885-3.4718303-1.3177283c-1.3016558 1.3154603-5.2066232.4331947-3.0364488 8.1082249z" fill="#387ed1" fill-rule="nonzero"/><path d="m76.0784627 29.0472439c.2563087-.2825382.4644343-.6045938.61619-.9534983 1.0124757-2.2702341-.5932833-5.121648-3.3352142-5.9026085-1.3744014-.397291-2.913731-.3178328-4.2858417-.7400963-1.1041025-.3382649-2.0341142-.9784709-3.0465899-1.4779224-1.9026432-.929063-4.0077998-1.3767565-6.1275397-1.3031143-2.0730555.0726475-4.3270738.7945819-5.176912 2.3814755-1.2415427 2.3110982 1.0422544 5.2215383-.3413097 7.4713402-1.0170571 1.6527304-3.4841076 2.1408307-5.5296751 2.8582247-2.1177659.7259022-4.0458375 1.9101151-5.6442085 3.4666473-1.6034684 1.5891639-2.7488029 3.7685885-1.9424874 5.7391517.4695872 1.1555491 1.5301669 2.0591023 2.3731331 3.055735 2.8915681 3.3622921 3.1442903 8.2301171.61619 11.8687836-.3939951.5607478-.8544195 1.1078742-1.0170571 1.7435397-.3894137 1.5165163 1.1819853 3.0421136 2.9984858 3.337244 1.8165006.2951305 3.7017212-.3768588 5.115064-1.3689511 1.3048434-.8915201 2.3550885-2.1020955 3.0488805-3.5143223 1.6790604-3.5279437.4993659-7.4917723.332147-11.2898738-.020616-.4426957 0-.9239853.3138217-1.2713311.4856218-.5198836 1.4018895-.5062622 2.1852983-.5743692 2.0272421-.1770783 3.8941374-1.3031144 4.7531382-2.8559544 1.6424098-2.987628-.2702989-7.1625884 2.5999094-9.4101201 3.6123851-2.8287116 8.8122039 1.6436494 11.4945773-1.2599799z" fill="#3f3d56" fill-rule="nonzero"/><path d="m73.4041251 21.6621881h-.0226255c1.0588743 1.2468462 1.4570834 2.9307786.828094 4.3846656-.149893.353549-.3554639.6798916-.6086265.9661908-2.6494483 2.9422809-7.7854412-1.5896138-11.3534857 1.276752-2.8349776 2.2774497-.9457467 6.5079849-2.5679964 9.5353826-.8416693 1.5735106-2.6924368 2.7145359-4.6947953 2.8939713-.7737928.0690136-1.6788136.0552109-2.1584746.5820149-.3190198.3519695-.3303325.8396658-.3099696 1.2882543.1651663 3.8486598 1.3303806 7.8652528-.32807 11.4401586-.685276 1.4310255-1.7226297 2.6577155-3.0114566 3.561103-1.3959946 1.0006976-3.2558123 1.6908338-5.0522785 1.3917748l-.1244404-.0276054c.6197108.8802993 1.5613328 1.4704863 2.6132475 1.6379233 1.7964662.2967586 3.6449712-.3933776 5.0522785-1.3963757 1.2888269-.9033875 2.3261806-2.1300775 3.0114566-3.561103 1.6584506-3.5749058.4932364-7.5914987.3280701-11.4401586-.020363-.4485885 0-.9362848.3099696-1.2882543.479661-.526804 1.3846818-.5130013 2.1584745-.5820149 2.0023585-.1794354 3.8463383-1.3204607 4.6947953-2.8939713 1.6222498-3.0273977-.2669811-7.2579329 2.5679965-9.5353825 3.5680444-2.8663659 8.7040373 1.6655288 11.3534856-1.2767521.2531626-.2862992.4587335-.6126418.6086265-.9661908 1.000048-2.3073555-.5860009-5.1783223-3.2942756-5.9903826z" fill="#000" fill-rule="nonzero" opacity=".1"/></g></svg>